<?xml version="1.0" standalone="no"?>
<!DOCTYPE svg PUBLIC "-//W3C//DTD SVG 20010904//EN"
 "http://www.w3.org/TR/2001/REC-SVG-20010904/DTD/svg10.dtd">
<svg version="1.0" xmlns="http://www.w3.org/2000/svg"
 width="854.000000pt" height="130.000000pt" viewBox="0 0 854.000000 130.000000"
 preserveAspectRatio="xMidYMid meet">

<g transform="translate(0.000000,130.000000) scale(0.100000,-0.100000)"
fill="#000000" stroke="none">
<path d="M4162 1249 c-24 -5 -59 -18 -77 -29 -35 -22 -135 -125 -135 -140 0
-20 22 -20 49 0 37 26 105 50 141 50 32 0 47 -14 52 -50 3 -23 7 -25 66 -28
l62 -3 0 30 c0 50 74 72 103 30 11 -15 23 -20 48 -17 l34 3 3 63 c3 68 -7 92
-39 92 -11 0 -27 -9 -36 -20 -22 -25 -51 -26 -77 -1 -24 22 -126 32 -194 20z"/>
<path d="M2752 838 l3 -403 75 0 75 0 3 168 2 167 135 0 135 0 0 -170 0 -171
78 3 77 3 3 403 2 402 -80 0 -80 0 0 -165 0 -165 -135 0 -135 0 0 165 0 165
-80 0 -80 0 2 -402z"/>
<path d="M3690 1236 c0 -2 -63 -178 -140 -391 -77 -213 -140 -393 -140 -401 0
-19 145 -20 157 -1 4 6 17 39 28 72 l21 60 139 0 139 0 26 -70 26 -70 79 0
c52 0 79 4 78 11 -1 6 -66 187 -144 402 l-141 392 -64 0 c-35 0 -64 -2 -64 -4z
m119 -386 c22 -69 41 -128 41 -133 0 -4 -43 -7 -96 -7 -73 0 -94 3 -91 13 3 6
25 69 48 139 24 70 46 124 50 120 4 -4 25 -63 48 -132z"/>
<path d="M4882 838 l3 -403 180 1 c166 0 184 2 233 24 71 31 125 93 146 168
22 79 23 346 1 419 -21 70 -63 123 -126 158 -54 30 -54 30 -247 33 l-192 4 2
-404z m355 236 c54 -39 63 -74 63 -234 -1 -224 -26 -260 -180 -260 l-80 0 0
261 0 261 84 -3 c66 -3 91 -9 113 -25z"/>
<path d="M5493 1227 c3 -7 51 -186 106 -397 56 -211 104 -387 107 -392 3 -4
32 -8 65 -8 71 0 58 -24 139 250 34 113 63 212 66 220 3 8 38 -93 78 -225 l72
-240 62 -3 c50 -2 62 0 70 15 9 16 212 772 212 788 0 3 -37 5 -82 3 l-82 -3
-59 -243 c-32 -134 -61 -241 -63 -239 -3 2 -35 112 -73 243 l-68 239 -60 3
-60 3 -36 -123 c-20 -68 -50 -175 -68 -238 -18 -63 -35 -118 -38 -122 -3 -4
-33 103 -65 237 l-60 245 -84 0 c-65 0 -83 -3 -79 -13z"/>
<path d="M6582 843 c-78 -219 -142 -402 -142 -406 0 -4 35 -7 77 -5 86 3 84 1
118 101 l17 47 138 0 138 0 25 -72 24 -73 79 0 c64 0 79 3 78 15 -1 8 -65 188
-142 400 l-139 385 -64 3 -64 2 -143 -397z m215 -131 c-49 -1 -92 -1 -94 2 -5
4 72 249 85 271 3 5 27 -54 52 -130 l47 -140 -90 -3z"/>
<path d="M7212 838 l3 -403 75 0 75 0 3 158 3 157 54 0 55 0 78 -157 77 -158
88 -3 c49 -2 87 1 87 7 0 5 -38 83 -85 173 l-84 164 47 34 c63 47 92 105 92
185 0 113 -68 204 -175 234 -22 6 -119 11 -218 11 l-177 0 2 -402z m346 251
c64 -22 84 -112 38 -166 -23 -27 -29 -28 -125 -31 l-101 -4 0 106 0 106 79 0
c43 0 92 -5 109 -11z"/>
<path d="M7912 838 l3 -403 260 0 260 0 3 73 3 72 -186 0 -185 0 0 95 0 94
158 3 157 3 3 68 3 67 -161 0 -160 0 0 95 0 95 185 0 185 0 0 70 0 70 -265 0
-265 0 2 -402z"/>
<path d="M4573 1138 c3 -51 8 -108 12 -126 10 -43 -10 -89 -46 -107 -17 -9
-56 -15 -99 -15 l-71 0 3 -67 3 -68 36 -3 36 -3 77 -160 77 -159 83 0 c45 0
86 3 89 7 4 3 -33 82 -81 176 -48 93 -82 171 -77 173 38 15 78 50 102 91 24
41 28 59 28 118 -1 75 -16 117 -64 168 -23 25 -89 67 -106 67 -4 0 -4 -42 -2
-92z"/>
<path d="M1970 1089 l0 -131 38 27 c20 16 56 44 80 63 l43 34 -3 67 -3 66 -77
3 -78 3 0 -132z"/>
<path d="M160 1075 l0 -85 -30 0 -30 0 0 -60 c0 -60 0 -60 29 -60 l30 0 3
-179 c3 -163 5 -182 24 -207 40 -54 70 -68 150 -72 l74 -4 0 66 0 66 -38 0
c-21 0 -43 5 -50 12 -8 8 -12 59 -12 165 l0 153 50 0 50 0 0 60 0 60 -50 0
-50 0 0 85 0 85 -75 0 -75 0 0 -85z"/>
<path d="M641 997 c-52 -20 -112 -76 -134 -126 -16 -36 -21 -68 -21 -151 -1
-121 13 -183 55 -233 70 -84 214 -109 316 -53 97 53 128 129 122 304 -4 100
-7 113 -34 158 -45 72 -106 106 -198 110 -42 2 -86 -2 -106 -9z m141 -138 c31
-16 48 -71 48 -152 0 -92 -14 -133 -51 -152 -40 -21 -74 -18 -106 9 -27 23
-28 28 -31 133 -4 106 -3 110 23 141 29 34 76 43 117 21z"/>
<path d="M1264 985 c-27 -14 -50 -25 -51 -25 -2 0 -3 9 -3 20 0 18 -7 20 -75
20 l-75 0 2 -292 3 -293 78 -3 77 -3 0 206 c0 205 0 206 25 230 30 31 92 34
126 6 24 -19 24 -23 29 -228 l5 -208 75 0 75 0 5 208 c5 205 5 209 29 228 34
28 96 25 126 -6 25 -24 25 -25 25 -230 l0 -206 78 3 77 3 0 220 c0 207 -2 222
-22 261 -44 84 -116 120 -216 111 -45 -4 -71 -13 -104 -36 l-43 -31 -21 21
c-54 54 -147 64 -225 24z"/>
<path d="M2234 992 c-88 -36 -127 -91 -126 -177 1 -103 55 -149 193 -165 45
-5 90 -12 100 -15 23 -8 33 -39 19 -65 -24 -45 -156 -45 -220 0 l-27 19 -48
-49 c-56 -57 -54 -65 29 -104 104 -50 266 -43 346 15 52 38 74 81 74 149 1
108 -64 164 -204 176 -109 9 -150 44 -102 87 25 23 120 22 167 0 l35 -17 46
45 45 44 -26 22 c-58 50 -219 69 -301 35z"/>
<path d="M4185 718 c-7 -265 -6 -282 11 -295 25 -18 108 -17 124 2 14 17 14
89 4 393 l-7 182 -62 0 -62 0 -8 -282z"/>
<path d="M120 235 c0 -9 9 -15 25 -15 25 0 25 -1 25 -85 0 -69 3 -85 15 -85
12 0 15 16 15 85 0 84 0 85 25 85 16 0 25 6 25 15 0 12 -14 15 -65 15 -51 0
-65 -3 -65 -15z"/>
<path d="M307 243 c-4 -3 -7 -48 -7 -100 0 -76 3 -93 15 -93 11 0 15 12 15 45
0 45 0 45 35 45 35 0 35 0 35 -45 0 -33 4 -45 15 -45 12 0 15 18 15 100 0 82
-3 100 -15 100 -11 0 -15 -11 -15 -40 0 -39 -1 -40 -35 -40 -34 0 -35 1 -35
40 0 38 -8 49 -23 33z"/>
<path d="M507 243 c-4 -3 -7 -49 -7 -100 l0 -94 63 3 c71 3 80 21 12 26 -40 3
-45 6 -45 27 0 21 5 24 42 27 59 4 63 28 4 28 -44 0 -46 1 -46 30 0 29 2 30
45 30 33 0 45 4 45 15 0 11 -13 15 -53 15 -30 0 -57 -3 -60 -7z"/>
<path d="M817 243 c-11 -20 -58 -186 -53 -190 11 -11 35 7 38 29 2 16 11 24
29 26 22 3 29 -2 37 -27 6 -17 18 -31 26 -31 21 0 21 0 -15 107 -28 84 -47
111 -62 86z m32 -95 c1 -5 -6 -8 -14 -8 -16 0 -19 9 -8 36 6 16 7 16 14 -2 4
-10 8 -22 8 -26z"/>
<path d="M967 243 c-4 -3 -7 -39 -7 -80 0 -60 4 -77 20 -93 24 -24 57 -26 88
-4 20 14 22 24 22 100 0 64 -3 85 -12 82 -8 -3 -15 -32 -18 -78 -4 -56 -9 -75
-23 -84 -30 -18 -47 17 -47 96 0 63 -6 79 -23 61z"/>
<path d="M1147 244 c-14 -14 -7 -24 18 -24 25 0 25 -1 25 -85 0 -68 3 -85 15
-85 11 0 15 18 17 83 3 82 3 82 31 85 16 2 27 8 24 15 -4 13 -118 22 -130 11z"/>
<path d="M1337 243 c-4 -3 -7 -48 -7 -100 0 -76 3 -93 15 -93 11 0 15 12 15
45 0 45 0 45 35 45 35 0 35 0 35 -45 0 -33 4 -45 15 -45 12 0 15 18 15 101 0
76 -3 100 -12 97 -7 -3 -14 -21 -16 -41 -3 -35 -5 -37 -38 -37 -33 0 -34 1
-34 40 0 38 -8 49 -23 33z"/>
<path d="M1564 238 c-49 -23 -61 -122 -19 -163 31 -32 66 -32 102 -1 24 21 28
32 28 76 0 44 -4 55 -28 76 -30 26 -50 29 -83 12z m58 -35 c36 -32 16 -123
-27 -123 -20 0 -45 40 -45 72 0 25 30 68 47 68 3 0 15 -7 25 -17z"/>
<path d="M1740 150 c0 -82 3 -100 15 -100 11 0 15 11 15 40 0 53 29 55 53 5
17 -35 42 -54 55 -41 4 4 -3 25 -15 46 -20 33 -21 40 -8 50 20 16 19 64 -1 84
-10 10 -33 16 -65 16 l-49 0 0 -100z m90 55 c17 -20 -3 -45 -36 -45 -20 0 -24
5 -24 30 0 25 4 30 24 30 13 0 29 -7 36 -15z"/>
<path d="M1935 237 c-3 -7 -5 -52 -3 -98 2 -67 6 -84 18 -84 12 0 15 17 15 94
0 67 -4 96 -12 98 -7 3 -15 -2 -18 -10z"/>
<path d="M2027 244 c-14 -14 -7 -24 18 -24 25 0 25 -1 25 -85 0 -68 3 -85 15
-85 11 0 15 18 17 83 3 82 3 82 31 85 16 2 27 8 24 15 -4 13 -118 22 -130 11z"/>
<path d="M2190 244 c0 -4 14 -31 30 -61 20 -34 30 -67 30 -93 0 -29 4 -40 15
-40 11 0 15 11 15 41 0 28 10 59 31 96 17 30 29 57 26 60 -12 12 -38 -8 -54
-42 l-17 -35 -21 37 c-18 33 -55 58 -55 37z"/>
<path d="M2535 238 c-34 -19 -44 -41 -45 -91 0 -38 5 -53 25 -72 66 -67 163
23 125 116 -22 52 -64 71 -105 47z m57 -35 c36 -32 16 -123 -27 -123 -20 0
-45 40 -45 72 0 25 30 68 47 68 3 0 15 -7 25 -17z"/>
<path d="M2700 150 c0 -82 3 -100 15 -100 12 0 15 14 15 63 l0 62 36 -62 c52
-92 64 -85 64 38 0 76 -3 100 -12 97 -8 -3 -15 -29 -18 -62 l-5 -57 -33 60
c-49 90 -62 82 -62 -39z"/>
<path d="M2987 244 c-14 -14 -7 -24 18 -24 24 0 24 -2 27 -82 2 -66 6 -83 18
-83 12 0 16 17 18 83 3 80 3 82 28 82 16 0 24 5 22 13 -5 13 -119 23 -131 11z"/>
<path d="M3170 150 l0 -100 60 0 c47 0 60 3 60 15 0 11 -12 15 -45 15 -41 0
-45 2 -45 24 0 22 5 25 42 28 59 4 63 28 4 28 -44 0 -46 1 -46 30 0 29 2 30
45 30 33 0 45 4 45 15 0 12 -13 15 -60 15 l-60 0 0 -100z"/>
<path d="M3393 240 c-30 -12 -43 -41 -43 -93 0 -57 29 -97 71 -97 33 0 72 33
67 57 -5 25 -25 27 -31 3 -14 -53 -77 -23 -77 37 0 56 57 92 74 47 7 -18 36
-18 36 0 0 16 -47 56 -64 55 -6 0 -21 -4 -33 -9z"/>
<path d="M3557 243 c-4 -3 -7 -48 -7 -100 0 -76 3 -93 15 -93 11 0 15 12 15
45 0 45 0 45 35 45 35 0 35 0 35 -45 0 -33 4 -45 15 -45 12 0 15 18 15 101 0
76 -3 100 -12 97 -7 -3 -14 -21 -16 -41 -3 -35 -5 -37 -38 -37 -33 0 -34 1
-34 40 0 38 -8 49 -23 33z"/>
</g>
</svg>
